<svg xmlns="http://www.w3.org/2000/svg" xmlns:xlink="http://www.w3.org/1999/xlink" width="100" zoomAndPan="magnify" viewBox="0 0 75 74.999997" height="100" preserveAspectRatio="xMidYMid meet" version="1.0"><defs><g/><clipPath id="6989f91ef9"><path d="M 5.6875 29.367188 L 21.886719 29.367188 L 21.886719 45.566406 L 5.6875 45.566406 Z M 5.6875 29.367188 " clip-rule="nonzero"/></clipPath><clipPath id="37a162b36d"><path d="M 5.6875 32.347656 L 19.035156 32.347656 L 19.035156 45.566406 L 5.6875 45.566406 Z M 5.6875 32.347656 " clip-rule="nonzero"/></clipPath><clipPath id="4683ca17d4"><path d="M 9 32.347656 L 19 32.347656 L 19 43 L 9 43 Z M 9 32.347656 " clip-rule="nonzero"/></clipPath></defs><g fill="#7b61ff" fill-opacity="1"><g transform="translate(23.039888, 43.638273)"><g><path d="M 0.0976562 -6.910156 C 0.335938 -6.910156 0.742188 -6.542969 0.742188 -5.640625 L 0.742188 -1.347656 C 0.742188 -0.636719 0.566406 -0.210938 0.117188 -0.0976562 L 0.117188 0 L 4.253906 0 L 4.253906 -0.0976562 C 3.800781 -0.210938 3.628906 -0.636719 3.628906 -1.347656 L 3.628906 -5.734375 C 3.628906 -6.496094 4.214844 -6.917969 4.550781 -6.917969 C 4.6875 -6.917969 4.78125 -6.851562 4.78125 -6.707031 C 4.78125 -6.363281 4.496094 -6.238281 4.496094 -5.667969 C 4.496094 -4.6875 5.148438 -4.03125 6.128906 -4.03125 C 7.121094 -4.03125 7.777344 -4.726562 7.777344 -5.8125 C 7.777344 -6.804688 7.113281 -7.832031 5.707031 -7.832031 C 4.523438 -7.832031 3.847656 -6.996094 3.628906 -6.476562 L 3.628906 -7.832031 L 3.53125 -7.832031 C 2.945312 -7.535156 1.136719 -7.007812 0.0976562 -7.007812 Z M 0.0976562 -6.910156 "/></g></g></g><g fill="#7b61ff" fill-opacity="1"><g transform="translate(30.478739, 43.638273)"><g><path d="M 0.386719 -1.820312 C 0.386719 -0.585938 1.320312 0.183594 2.367188 0.183594 C 3.386719 0.183594 4.15625 -0.335938 4.542969 -1.550781 C 4.601562 -0.722656 5.109375 0.183594 6.148438 0.183594 C 7.054688 0.183594 7.699219 -0.183594 8.21875 -0.480469 L 8.21875 -0.578125 C 7.660156 -0.578125 7.488281 -1.144531 7.488281 -1.867188 L 7.488281 -4.570312 C 7.488281 -5.640625 6.863281 -7.832031 3.847656 -7.832031 C 1.742188 -7.832031 0.855469 -6.765625 0.855469 -5.878906 C 0.855469 -5.285156 1.308594 -4.792969 2 -4.792969 C 2.90625 -4.792969 3.167969 -5.640625 3.878906 -5.640625 C 4.070312 -5.640625 4.359375 -5.582031 4.359375 -5.320312 C 4.359375 -4.457031 0.386719 -4.800781 0.386719 -1.820312 Z M 3.261719 -2.617188 C 3.261719 -4.925781 4.53125 -4.589844 4.53125 -5.351562 C 4.53125 -5.660156 4.273438 -5.753906 4.003906 -5.878906 C 3.695312 -6.023438 3.359375 -6.253906 3.359375 -6.824219 C 3.359375 -7.027344 3.445312 -7.691406 3.847656 -7.691406 C 4.609375 -7.691406 4.53125 -6.304688 4.53125 -5.765625 L 4.53125 -1.847656 C 4.53125 -1.742188 4.261719 -1.519531 4.003906 -1.519531 C 3.511719 -1.519531 3.261719 -2.089844 3.261719 -2.617188 Z M 3.261719 -2.617188 "/></g></g></g><g fill="#7b61ff" fill-opacity="1"><g transform="translate(38.360271, 43.638273)"><g><path d="M 0 -10.972656 L 0 -10.875 C 0.480469 -10.875 0.90625 -9.277344 1.164062 -8.257812 C 1.984375 -5.035156 2.425781 -3.222656 3.242188 0 L 6.429688 0 C 7.246094 -3.222656 7.691406 -5.035156 8.507812 -8.257812 C 8.765625 -9.277344 9.191406 -10.875 9.671875 -10.875 L 9.671875 -10.972656 L 5.765625 -10.972656 L 5.765625 -10.875 C 8.371094 -8.980469 6.917969 -2.847656 6.34375 -0.335938 C 5.679688 -2.945312 5.476562 -3.761719 4.910156 -5.996094 C 4.609375 -7.179688 3.800781 -10.105469 4.832031 -10.875 L 4.832031 -10.972656 Z M 0 -10.972656 "/></g></g></g><g fill="#7b61ff" fill-opacity="1"><g transform="translate(47.598708, 43.638273)"><g><path d="M 4.398438 0.183594 C 5.984375 0.183594 7.488281 -0.847656 7.488281 -2.195312 C 7.082031 -2.03125 6.699219 -1.945312 6.265625 -1.945312 C 5.042969 -1.945312 4.042969 -2.453125 3.445312 -3.40625 L 4.3125 -3.40625 C 6.632812 -3.40625 7.613281 -4.070312 7.613281 -5.339844 C 7.613281 -6.699219 6.378906 -7.824219 4.195312 -7.824219 C 1.972656 -7.824219 0.386719 -6.035156 0.386719 -3.820312 C 0.386719 -1.605469 2.175781 0.183594 4.398438 0.183594 Z M 3.339844 -3.589844 C 3.03125 -4.15625 2.859375 -4.871094 2.859375 -5.714844 C 2.859375 -6.449219 3.136719 -7.613281 4.023438 -7.613281 C 4.773438 -7.613281 5.109375 -6.574219 5.109375 -5.765625 C 5.109375 -4.753906 4.675781 -3.589844 3.398438 -3.589844 Z M 3.339844 -3.589844 "/></g></g></g><g fill="#7b61ff" fill-opacity="1"><g transform="translate(54.873961, 43.638273)"><g><path d="M 0 -7.660156 L 0 -7.566406 C 0.796875 -7.566406 1.050781 -7.027344 1.25 -6.398438 C 2.117188 -3.734375 2.484375 -2.578125 3.167969 0 L 5.753906 0 C 6.304688 -2.078125 6.648438 -3.167969 7.21875 -4.984375 C 7.785156 -3.167969 8.132812 -2.078125 8.679688 0 L 11.261719 0 C 11.945312 -2.578125 12.308594 -3.734375 13.175781 -6.398438 C 13.378906 -7.027344 13.609375 -7.566406 14.425781 -7.566406 L 14.425781 -7.660156 L 11.097656 -7.660156 L 11.097656 -7.546875 L 11.316406 -7.546875 C 12.886719 -7.546875 11.800781 -3.003906 11.269531 -0.796875 C 10.855469 -2.328125 10.335938 -4.03125 9.816406 -6.109375 C 9.671875 -6.6875 9.824219 -7.546875 10.652344 -7.546875 L 10.652344 -7.660156 L 5.515625 -7.660156 L 5.515625 -7.566406 C 5.832031 -7.566406 6.121094 -7.476562 6.34375 -7.238281 C 7.296875 -6.207031 6.21875 -2.65625 5.773438 -0.796875 C 5.359375 -2.328125 4.832031 -4.03125 4.3125 -6.109375 C 4.167969 -6.6875 4.320312 -7.566406 5.148438 -7.566406 L 5.148438 -7.660156 Z M 0 -7.660156 "/></g></g></g><g clip-path="url(#6989f91ef9)"><path fill="#7b61ff" d="M 13.820312 45.609375 C 9.335938 45.609375 5.691406 41.964844 5.691406 37.480469 C 5.691406 33 9.335938 29.351562 13.820312 29.351562 C 18.300781 29.351562 21.949219 33 21.949219 37.480469 C 21.949219 39.546875 21.171875 41.515625 19.761719 43.027344 C 19.59375 43.207031 19.308594 43.21875 19.128906 43.050781 C 18.949219 42.882812 18.941406 42.597656 19.109375 42.417969 C 20.363281 41.074219 21.054688 39.320312 21.054688 37.480469 C 21.054688 33.488281 17.808594 30.242188 13.820312 30.242188 C 9.828125 30.242188 6.582031 33.488281 6.582031 37.480469 C 6.582031 41.472656 9.828125 44.71875 13.820312 44.71875 C 15.054688 44.71875 16.273438 44.402344 17.34375 43.804688 C 17.558594 43.683594 17.828125 43.761719 17.949219 43.976562 C 18.070312 44.191406 17.992188 44.460938 17.777344 44.582031 C 16.574219 45.253906 15.207031 45.609375 13.820312 45.609375 Z M 13.820312 45.609375 " fill-opacity="1" fill-rule="nonzero"/></g><path fill="#7b61ff" d="M 11.929688 42.375 C 10.476562 42.375 9.296875 41.195312 9.296875 39.742188 C 9.296875 38.289062 10.476562 37.109375 11.929688 37.109375 L 15.941406 37.074219 C 16.90625 37.074219 17.6875 36.292969 17.6875 35.332031 C 17.6875 34.371094 16.90625 33.589844 15.945312 33.589844 C 14.984375 33.589844 14.203125 34.371094 14.203125 35.332031 L 14.203125 35.960938 C 14.203125 36.210938 14.003906 36.410156 13.757812 36.410156 C 13.511719 36.410156 13.3125 36.207031 13.3125 35.960938 L 13.3125 35.332031 C 13.3125 33.882812 14.496094 32.699219 15.945312 32.699219 C 17.398438 32.699219 18.582031 33.882812 18.582031 35.332031 C 18.582031 36.785156 17.398438 37.96875 15.945312 37.96875 L 11.933594 38 C 10.96875 38 10.1875 38.78125 10.1875 39.742188 C 10.1875 40.703125 10.96875 41.484375 11.929688 41.484375 C 12.890625 41.484375 13.671875 40.703125 13.671875 39.742188 L 13.671875 39.054688 C 13.671875 38.808594 13.871094 38.609375 14.117188 38.609375 C 14.363281 38.609375 14.5625 38.808594 14.5625 39.054688 L 14.5625 39.742188 C 14.5625 41.195312 13.378906 42.375 11.929688 42.375 Z M 11.929688 42.375 " fill-opacity="1" fill-rule="nonzero"/><g clip-path="url(#37a162b36d)"><path fill="#7b61ff" d="M 13.820312 45.609375 C 9.335938 45.609375 5.691406 41.964844 5.691406 37.480469 C 5.691406 33 9.335938 29.351562 13.820312 29.351562 C 18.300781 29.351562 21.949219 33 21.949219 37.480469 C 21.949219 39.546875 21.171875 41.515625 19.761719 43.027344 C 19.59375 43.207031 19.308594 43.21875 19.128906 43.050781 C 18.949219 42.882812 18.941406 42.597656 19.109375 42.417969 C 20.363281 41.074219 21.054688 39.320312 21.054688 37.480469 C 21.054688 33.488281 17.808594 30.242188 13.820312 30.242188 C 9.828125 30.242188 6.582031 33.488281 6.582031 37.480469 C 6.582031 41.472656 9.828125 44.71875 13.820312 44.71875 C 15.054688 44.71875 16.273438 44.402344 17.34375 43.804688 C 17.558594 43.683594 17.828125 43.761719 17.949219 43.976562 C 18.070312 44.191406 17.992188 44.460938 17.777344 44.582031 C 16.574219 45.253906 15.207031 45.609375 13.820312 45.609375 Z M 13.820312 45.609375 " fill-opacity="1" fill-rule="nonzero"/></g><g clip-path="url(#4683ca17d4)"><path fill="#7b61ff" d="M 11.929688 42.375 C 10.476562 42.375 9.296875 41.195312 9.296875 39.742188 C 9.296875 38.289062 10.476562 37.109375 11.929688 37.109375 L 15.941406 37.074219 C 16.90625 37.074219 17.6875 36.292969 17.6875 35.332031 C 17.6875 34.371094 16.90625 33.589844 15.945312 33.589844 C 14.984375 33.589844 14.203125 34.371094 14.203125 35.332031 L 14.203125 35.960938 C 14.203125 36.210938 14.003906 36.410156 13.757812 36.410156 C 13.511719 36.410156 13.3125 36.207031 13.3125 35.960938 L 13.3125 35.332031 C 13.3125 33.882812 14.496094 32.699219 15.945312 32.699219 C 17.398438 32.699219 18.582031 33.882812 18.582031 35.332031 C 18.582031 36.785156 17.398438 37.96875 15.945312 37.96875 L 11.933594 38 C 10.96875 38 10.1875 38.78125 10.1875 39.742188 C 10.1875 40.703125 10.96875 41.484375 11.929688 41.484375 C 12.890625 41.484375 13.671875 40.703125 13.671875 39.742188 L 13.671875 39.054688 C 13.671875 38.808594 13.871094 38.609375 14.117188 38.609375 C 14.363281 38.609375 14.5625 38.808594 14.5625 39.054688 L 14.5625 39.742188 C 14.5625 41.195312 13.378906 42.375 11.929688 42.375 Z M 11.929688 42.375 " fill-opacity="1" fill-rule="nonzero"/></g></svg>