<svg xmlns="http://www.w3.org/2000/svg" xmlns:xlink="http://www.w3.org/1999/xlink" width="500" zoomAndPan="magnify" viewBox="0 0 375 374.999991" height="500" preserveAspectRatio="xMidYMid meet" version="1.0"><defs><g/><clipPath id="27f44bb6bf"><path d="M 28.433594 146.832031 L 109.433594 146.832031 L 109.433594 227.832031 L 28.433594 227.832031 Z M 28.433594 146.832031 " clip-rule="nonzero"/></clipPath><clipPath id="3f3558d631"><path d="M 28.433594 161.742188 L 95.183594 161.742188 L 95.183594 227.832031 L 28.433594 227.832031 Z M 28.433594 161.742188 " clip-rule="nonzero"/></clipPath></defs><g fill="#7b61ff" fill-opacity="1"><g transform="translate(115.199426, 218.191363)"><g><path d="M 0.480469 -34.550781 C 1.683594 -34.550781 3.707031 -32.722656 3.707031 -28.199219 L 3.707031 -6.738281 C 3.707031 -3.175781 2.839844 -1.058594 0.578125 -0.480469 L 0.578125 0 L 21.269531 0 L 21.269531 -0.480469 C 19.007812 -1.058594 18.140625 -3.175781 18.140625 -6.738281 L 18.140625 -28.679688 C 18.140625 -32.480469 21.078125 -34.597656 22.761719 -34.597656 C 23.433594 -34.597656 23.914062 -34.261719 23.914062 -33.539062 C 23.914062 -31.808594 22.472656 -31.183594 22.472656 -28.34375 C 22.472656 -23.433594 25.746094 -20.164062 30.652344 -20.164062 C 35.609375 -20.164062 38.882812 -23.625 38.882812 -29.066406 C 38.882812 -34.019531 35.5625 -39.167969 28.535156 -39.167969 C 22.617188 -39.167969 19.246094 -34.984375 18.140625 -32.382812 L 18.140625 -39.167969 L 17.660156 -39.167969 C 14.726562 -37.679688 5.679688 -35.03125 0.480469 -35.03125 Z M 0.480469 -34.550781 "/></g></g></g><g fill="#7b61ff" fill-opacity="1"><g transform="translate(152.393683, 218.191363)"><g><path d="M 1.925781 -9.09375 C 1.925781 -2.933594 6.59375 0.914062 11.835938 0.914062 C 16.9375 0.914062 20.789062 -1.683594 22.710938 -7.746094 C 23 -3.609375 25.550781 0.914062 30.75 0.914062 C 35.273438 0.914062 38.496094 -0.914062 41.09375 -2.40625 L 41.09375 -2.886719 C 38.304688 -2.886719 37.4375 -5.726562 37.4375 -9.335938 L 37.4375 -22.855469 C 37.4375 -28.199219 34.308594 -39.167969 19.246094 -39.167969 C 8.710938 -39.167969 4.28125 -33.828125 4.28125 -29.402344 C 4.28125 -26.417969 6.542969 -23.964844 10.007812 -23.964844 C 14.53125 -23.964844 15.832031 -28.199219 19.390625 -28.199219 C 20.355469 -28.199219 21.796875 -27.910156 21.796875 -26.609375 C 21.796875 -22.28125 1.925781 -24.011719 1.925781 -9.09375 Z M 16.3125 -13.089844 C 16.3125 -24.636719 22.664062 -22.953125 22.664062 -26.753906 C 22.664062 -28.292969 21.367188 -28.777344 20.019531 -29.402344 C 18.476562 -30.125 16.792969 -31.277344 16.792969 -34.117188 C 16.792969 -35.128906 17.226562 -38.449219 19.246094 -38.449219 C 23.050781 -38.449219 22.664062 -31.519531 22.664062 -28.824219 L 22.664062 -9.238281 C 22.664062 -8.710938 21.316406 -7.601562 20.019531 -7.601562 C 17.5625 -7.601562 16.3125 -10.441406 16.3125 -13.089844 Z M 16.3125 -13.089844 "/></g></g></g><g fill="#7b61ff" fill-opacity="1"><g transform="translate(191.801342, 218.191363)"><g><path d="M 0 -54.855469 L 0 -54.375 C 2.40625 -54.375 4.523438 -46.386719 5.824219 -41.285156 C 9.914062 -25.167969 12.125 -16.121094 16.214844 0 L 32.144531 0 C 36.234375 -16.121094 38.449219 -25.167969 42.539062 -41.285156 C 43.835938 -46.386719 45.953125 -54.375 48.359375 -54.375 L 48.359375 -54.855469 L 28.824219 -54.855469 L 28.824219 -54.375 C 41.863281 -44.894531 34.597656 -14.242188 31.710938 -1.683594 C 28.390625 -14.726562 27.378906 -18.816406 24.542969 -29.980469 C 23.050781 -35.898438 19.007812 -50.527344 24.15625 -54.375 L 24.15625 -54.855469 Z M 0 -54.855469 "/></g></g></g><g fill="#7b61ff" fill-opacity="1"><g transform="translate(237.993527, 218.191363)"><g><path d="M 21.992188 0.914062 C 29.929688 0.914062 37.4375 -4.234375 37.4375 -10.972656 C 35.417969 -10.152344 33.492188 -9.71875 31.324219 -9.71875 C 25.214844 -9.71875 20.210938 -12.269531 17.226562 -17.035156 L 21.558594 -17.035156 C 33.15625 -17.035156 38.0625 -20.355469 38.0625 -26.707031 C 38.0625 -33.492188 31.902344 -39.121094 20.980469 -39.121094 C 9.863281 -39.121094 1.925781 -30.171875 1.925781 -19.105469 C 1.925781 -8.035156 10.875 0.914062 21.992188 0.914062 Z M 16.699219 -17.949219 C 15.15625 -20.789062 14.292969 -24.347656 14.292969 -28.582031 C 14.292969 -32.242188 15.6875 -38.0625 20.113281 -38.0625 C 23.867188 -38.0625 25.550781 -32.867188 25.550781 -28.824219 C 25.550781 -23.769531 23.386719 -17.949219 16.988281 -17.949219 Z M 16.699219 -17.949219 "/></g></g></g><g fill="#7b61ff" fill-opacity="1"><g transform="translate(274.369795, 218.191363)"><g><path d="M 0 -38.304688 L 0 -37.824219 C 3.992188 -37.824219 5.246094 -35.128906 6.253906 -32 C 10.585938 -18.671875 12.414062 -12.894531 15.832031 0 L 28.777344 0 C 31.519531 -10.394531 33.25 -15.832031 36.089844 -24.925781 C 38.929688 -15.832031 40.660156 -10.394531 43.402344 0 L 56.300781 0 C 59.71875 -12.894531 61.546875 -18.671875 65.875 -32 C 66.886719 -35.128906 68.042969 -37.824219 72.132812 -37.824219 L 72.132812 -38.304688 L 55.480469 -38.304688 L 55.480469 -37.726562 L 56.589844 -37.726562 C 64.433594 -37.726562 58.996094 -15.011719 56.347656 -3.992188 C 54.28125 -11.644531 51.679688 -20.164062 49.082031 -30.554688 C 48.359375 -33.445312 49.128906 -37.726562 53.269531 -37.726562 L 53.269531 -38.304688 L 27.574219 -38.304688 L 27.574219 -37.824219 C 29.160156 -37.824219 30.605469 -37.390625 31.710938 -36.1875 C 36.476562 -31.039062 31.085938 -13.28125 28.871094 -3.992188 C 26.804688 -11.644531 24.15625 -20.164062 21.558594 -30.554688 C 20.835938 -33.445312 21.605469 -37.824219 25.746094 -37.824219 L 25.746094 -38.304688 Z M 0 -38.304688 "/></g></g></g><g clip-path="url(#27f44bb6bf)"><path fill="#7b61ff" d="M 69.097656 228.046875 C 46.6875 228.046875 28.453125 209.816406 28.453125 187.402344 C 28.453125 164.992188 46.6875 146.761719 69.097656 146.761719 C 91.507812 146.761719 109.738281 164.992188 109.738281 187.402344 C 109.738281 197.734375 105.855469 207.585938 98.800781 215.140625 C 97.960938 216.039062 96.550781 216.085938 95.652344 215.246094 C 94.753906 214.410156 94.707031 212.996094 95.542969 212.097656 C 101.824219 205.375 105.28125 196.601562 105.28125 187.402344 C 105.28125 167.449219 89.050781 151.21875 69.097656 151.21875 C 49.144531 151.21875 32.910156 167.449219 32.910156 187.402344 C 32.910156 207.355469 49.144531 223.589844 69.097656 223.589844 C 75.269531 223.589844 81.359375 222.007812 86.714844 219.019531 C 87.792969 218.421875 89.148438 218.804688 89.746094 219.878906 C 90.347656 220.953125 89.964844 222.3125 88.886719 222.910156 C 82.871094 226.273438 76.027344 228.046875 69.097656 228.046875 Z M 69.097656 228.046875 " fill-opacity="1" fill-rule="nonzero"/></g><path fill="#7b61ff" d="M 59.644531 211.878906 C 52.382812 211.878906 46.476562 205.972656 46.476562 198.710938 C 46.476562 191.449219 52.382812 185.542969 59.644531 185.542969 L 79.714844 185.378906 C 84.535156 185.378906 88.441406 181.46875 88.441406 176.664062 C 88.441406 171.863281 84.535156 167.957031 79.730469 167.957031 C 74.925781 167.957031 71.019531 171.863281 71.019531 176.664062 L 71.019531 179.8125 C 71.019531 181.046875 70.019531 182.042969 68.792969 182.042969 C 67.5625 182.042969 66.5625 181.042969 66.5625 179.8125 L 66.5625 176.664062 C 66.5625 169.40625 72.472656 163.5 79.734375 163.5 C 86.996094 163.5 92.902344 169.40625 92.902344 176.664062 C 92.902344 183.925781 86.996094 189.835938 79.734375 189.835938 L 59.664062 190 C 54.84375 190 50.933594 193.90625 50.933594 198.710938 C 50.933594 203.515625 54.84375 207.421875 59.648438 207.421875 C 64.445312 207.421875 68.351562 203.515625 68.351562 198.710938 L 68.351562 195.28125 C 68.351562 194.050781 69.351562 193.054688 70.582031 193.054688 C 71.8125 193.054688 72.808594 194.050781 72.808594 195.28125 L 72.808594 198.710938 C 72.808594 205.972656 66.902344 211.878906 59.644531 211.878906 Z M 59.644531 211.878906 " fill-opacity="1" fill-rule="nonzero"/><g clip-path="url(#3f3558d631)"><path fill="#7b61ff" d="M 69.097656 228.046875 C 46.6875 228.046875 28.453125 209.816406 28.453125 187.402344 C 28.453125 164.992188 46.6875 146.761719 69.097656 146.761719 C 91.507812 146.761719 109.738281 164.992188 109.738281 187.402344 C 109.738281 197.734375 105.855469 207.585938 98.800781 215.140625 C 97.960938 216.039062 96.550781 216.085938 95.652344 215.246094 C 94.753906 214.410156 94.707031 212.996094 95.542969 212.097656 C 101.824219 205.375 105.28125 196.601562 105.28125 187.402344 C 105.28125 167.449219 89.050781 151.21875 69.097656 151.21875 C 49.144531 151.21875 32.910156 167.449219 32.910156 187.402344 C 32.910156 207.355469 49.144531 223.589844 69.097656 223.589844 C 75.269531 223.589844 81.359375 222.007812 86.714844 219.019531 C 87.792969 218.421875 89.148438 218.804688 89.746094 219.878906 C 90.347656 220.953125 89.964844 222.3125 88.886719 222.910156 C 82.871094 226.269531 76.027344 228.046875 69.097656 228.046875 Z M 69.097656 228.046875 " fill-opacity="1" fill-rule="nonzero"/></g><path fill="#7b61ff" d="M 59.644531 211.878906 C 52.382812 211.878906 46.476562 205.972656 46.476562 198.710938 C 46.476562 191.449219 52.382812 185.542969 59.644531 185.542969 L 79.714844 185.378906 C 84.535156 185.378906 88.441406 181.46875 88.441406 176.664062 C 88.441406 171.863281 84.535156 167.957031 79.730469 167.957031 C 74.925781 167.957031 71.019531 171.863281 71.019531 176.664062 L 71.019531 179.8125 C 71.019531 181.046875 70.019531 182.042969 68.792969 182.042969 C 67.5625 182.042969 66.5625 181.042969 66.5625 179.8125 L 66.5625 176.664062 C 66.5625 169.40625 72.472656 163.5 79.734375 163.5 C 86.996094 163.5 92.902344 169.40625 92.902344 176.664062 C 92.902344 183.925781 86.996094 189.835938 79.734375 189.835938 L 59.664062 190 C 54.84375 190 50.933594 193.90625 50.933594 198.710938 C 50.933594 203.515625 54.84375 207.421875 59.648438 207.421875 C 64.445312 207.421875 68.351562 203.515625 68.351562 198.710938 L 68.351562 195.28125 C 68.351562 194.050781 69.351562 193.054688 70.582031 193.054688 C 71.8125 193.054688 72.808594 194.050781 72.808594 195.28125 L 72.808594 198.710938 C 72.808594 205.972656 66.902344 211.878906 59.644531 211.878906 Z M 59.644531 211.878906 " fill-opacity="1" fill-rule="nonzero"/></svg>