<svg xmlns="http://www.w3.org/2000/svg" xmlns:xlink="http://www.w3.org/1999/xlink" width="200" zoomAndPan="magnify" viewBox="0 0 150 149.999998" height="200" preserveAspectRatio="xMidYMid meet" version="1.0"><defs><g/><clipPath id="5b98aca634"><path d="M 11.375 58.734375 L 43.773438 58.734375 L 43.773438 91.132812 L 11.375 91.132812 Z M 11.375 58.734375 " clip-rule="nonzero"/></clipPath><clipPath id="26f2db3f50"><path d="M 11.375 64.695312 L 38.074219 64.695312 L 38.074219 91.132812 L 11.375 91.132812 Z M 11.375 64.695312 " clip-rule="nonzero"/></clipPath></defs><g fill="#7b61ff" fill-opacity="1"><g transform="translate(46.079775, 87.276551)"><g><path d="M 0.191406 -13.820312 C 0.671875 -13.820312 1.480469 -13.089844 1.480469 -11.28125 L 1.480469 -2.695312 C 1.480469 -1.269531 1.136719 -0.421875 0.230469 -0.191406 L 0.230469 0 L 8.507812 0 L 8.507812 -0.191406 C 7.601562 -0.421875 7.257812 -1.269531 7.257812 -2.695312 L 7.257812 -11.472656 C 7.257812 -12.992188 8.429688 -13.839844 9.105469 -13.839844 C 9.375 -13.839844 9.566406 -13.703125 9.566406 -13.414062 C 9.566406 -12.722656 8.988281 -12.472656 8.988281 -11.335938 C 8.988281 -9.375 10.296875 -8.066406 12.261719 -8.066406 C 14.242188 -8.066406 15.550781 -9.449219 15.550781 -11.625 C 15.550781 -13.609375 14.222656 -15.667969 11.414062 -15.667969 C 9.046875 -15.667969 7.699219 -13.992188 7.257812 -12.953125 L 7.257812 -15.667969 L 7.0625 -15.667969 C 5.890625 -15.070312 2.269531 -14.011719 0.191406 -14.011719 Z M 0.191406 -13.820312 "/></g></g></g><g fill="#7b61ff" fill-opacity="1"><g transform="translate(60.957478, 87.276551)"><g><path d="M 0.769531 -3.636719 C 0.769531 -1.175781 2.636719 0.367188 4.734375 0.367188 C 6.773438 0.367188 8.316406 -0.671875 9.085938 -3.097656 C 9.199219 -1.445312 10.21875 0.367188 12.300781 0.367188 C 14.109375 0.367188 15.398438 -0.367188 16.4375 -0.960938 L 16.4375 -1.15625 C 15.320312 -1.15625 14.976562 -2.289062 14.976562 -3.734375 L 14.976562 -9.144531 C 14.976562 -11.28125 13.722656 -15.667969 7.699219 -15.667969 C 3.484375 -15.667969 1.714844 -13.53125 1.714844 -11.761719 C 1.714844 -10.566406 2.617188 -9.585938 4.003906 -9.585938 C 5.8125 -9.585938 6.332031 -11.28125 7.757812 -11.28125 C 8.140625 -11.28125 8.71875 -11.164062 8.71875 -10.644531 C 8.71875 -8.910156 0.769531 -9.605469 0.769531 -3.636719 Z M 6.523438 -5.234375 C 6.523438 -9.855469 9.066406 -9.179688 9.066406 -10.703125 C 9.066406 -11.316406 8.546875 -11.511719 8.007812 -11.761719 C 7.390625 -12.050781 6.71875 -12.511719 6.71875 -13.648438 C 6.71875 -14.050781 6.890625 -15.378906 7.699219 -15.378906 C 9.21875 -15.378906 9.066406 -12.609375 9.066406 -11.53125 L 9.066406 -3.695312 C 9.066406 -3.484375 8.527344 -3.042969 8.007812 -3.042969 C 7.027344 -3.042969 6.523438 -4.175781 6.523438 -5.234375 Z M 6.523438 -5.234375 "/></g></g></g><g fill="#7b61ff" fill-opacity="1"><g transform="translate(76.720542, 87.276551)"><g><path d="M 0 -21.941406 L 0 -21.75 C 0.960938 -21.75 1.808594 -18.554688 2.328125 -16.515625 C 3.964844 -10.066406 4.851562 -6.449219 6.488281 0 L 12.859375 0 C 14.492188 -6.449219 15.378906 -10.066406 17.015625 -16.515625 C 17.535156 -18.554688 18.382812 -21.75 19.34375 -21.75 L 19.34375 -21.941406 L 11.53125 -21.941406 L 11.53125 -21.75 C 16.746094 -17.957031 13.839844 -5.699219 12.683594 -0.671875 C 11.355469 -5.890625 10.953125 -7.527344 9.816406 -11.992188 C 9.21875 -14.359375 7.601562 -20.210938 9.664062 -21.75 L 9.664062 -21.941406 Z M 0 -21.941406 "/></g></g></g><g fill="#7b61ff" fill-opacity="1"><g transform="translate(95.197416, 87.276551)"><g><path d="M 8.796875 0.367188 C 11.972656 0.367188 14.976562 -1.695312 14.976562 -4.386719 C 14.167969 -4.0625 13.398438 -3.886719 12.53125 -3.886719 C 10.085938 -3.886719 8.085938 -4.910156 6.890625 -6.8125 L 8.625 -6.8125 C 13.261719 -6.8125 15.226562 -8.140625 15.226562 -10.683594 C 15.226562 -13.398438 12.761719 -15.648438 8.390625 -15.648438 C 3.945312 -15.648438 0.769531 -12.070312 0.769531 -7.640625 C 0.769531 -3.214844 4.351562 0.367188 8.796875 0.367188 Z M 6.679688 -7.179688 C 6.0625 -8.316406 5.714844 -9.738281 5.714844 -11.433594 C 5.714844 -12.894531 6.273438 -15.226562 8.046875 -15.226562 C 9.546875 -15.226562 10.21875 -13.144531 10.21875 -11.53125 C 10.21875 -9.507812 9.355469 -7.179688 6.792969 -7.179688 Z M 6.679688 -7.179688 "/></g></g></g><g fill="#7b61ff" fill-opacity="1"><g transform="translate(109.747924, 87.276551)"><g><path d="M 0 -15.320312 L 0 -15.128906 C 1.597656 -15.128906 2.097656 -14.050781 2.503906 -12.800781 C 4.234375 -7.46875 4.964844 -5.160156 6.332031 0 L 11.511719 0 C 12.609375 -4.15625 13.300781 -6.332031 14.4375 -9.96875 C 15.570312 -6.332031 16.265625 -4.15625 17.363281 0 L 22.519531 0 C 23.886719 -5.160156 24.617188 -7.46875 26.351562 -12.800781 C 26.753906 -14.050781 27.214844 -15.128906 28.851562 -15.128906 L 28.851562 -15.320312 L 22.191406 -15.320312 L 22.191406 -15.089844 L 22.636719 -15.089844 C 25.773438 -15.089844 23.597656 -6.003906 22.539062 -1.597656 C 21.710938 -4.65625 20.671875 -8.066406 19.632812 -12.222656 C 19.34375 -13.378906 19.652344 -15.089844 21.308594 -15.089844 L 21.308594 -15.320312 L 11.027344 -15.320312 L 11.027344 -15.128906 C 11.664062 -15.128906 12.242188 -14.957031 12.683594 -14.472656 C 14.589844 -12.414062 12.433594 -5.3125 11.546875 -1.597656 C 10.722656 -4.65625 9.664062 -8.066406 8.625 -12.222656 C 8.335938 -13.378906 8.640625 -15.128906 10.296875 -15.128906 L 10.296875 -15.320312 Z M 0 -15.320312 "/></g></g></g><g clip-path="url(#5b98aca634)"><path fill="#7b61ff" d="M 27.636719 91.21875 C 18.675781 91.21875 11.382812 83.925781 11.382812 74.960938 C 11.382812 65.996094 18.675781 58.703125 27.636719 58.703125 C 36.601562 58.703125 43.894531 65.996094 43.894531 74.960938 C 43.894531 79.09375 42.34375 83.035156 39.519531 86.054688 C 39.183594 86.417969 38.621094 86.433594 38.261719 86.097656 C 37.902344 85.761719 37.882812 85.199219 38.21875 84.839844 C 40.730469 82.148438 42.113281 78.640625 42.113281 74.960938 C 42.113281 66.980469 35.621094 60.488281 27.636719 60.488281 C 19.65625 60.488281 13.164062 66.980469 13.164062 74.960938 C 13.164062 82.941406 19.65625 89.433594 27.636719 89.433594 C 30.109375 89.433594 32.542969 88.804688 34.6875 87.609375 C 35.117188 87.367188 35.660156 87.523438 35.898438 87.953125 C 36.140625 88.382812 35.984375 88.925781 35.554688 89.164062 C 33.148438 90.507812 30.410156 91.21875 27.636719 91.21875 Z M 27.636719 91.21875 " fill-opacity="1" fill-rule="nonzero"/></g><path fill="#7b61ff" d="M 23.859375 84.75 C 20.953125 84.75 18.589844 82.386719 18.589844 79.484375 C 18.589844 76.578125 20.953125 74.21875 23.859375 74.21875 L 31.886719 74.152344 C 33.8125 74.152344 35.375 72.589844 35.375 70.667969 C 35.375 68.746094 33.8125 67.183594 31.894531 67.183594 C 29.972656 67.183594 28.40625 68.746094 28.40625 70.667969 L 28.40625 71.925781 C 28.40625 72.417969 28.007812 72.816406 27.515625 72.816406 C 27.023438 72.816406 26.625 72.417969 26.625 71.925781 L 26.625 70.667969 C 26.625 67.761719 28.988281 65.398438 31.894531 65.398438 C 34.796875 65.398438 37.160156 67.761719 37.160156 70.667969 C 37.160156 73.570312 34.796875 75.933594 31.894531 75.933594 L 23.867188 76 C 21.9375 76 20.375 77.5625 20.375 79.484375 C 20.375 81.40625 21.9375 82.96875 23.859375 82.96875 C 25.777344 82.96875 27.339844 81.40625 27.339844 79.484375 L 27.339844 78.113281 C 27.339844 77.621094 27.742188 77.222656 28.230469 77.222656 C 28.722656 77.222656 29.125 77.621094 29.125 78.113281 L 29.125 79.484375 C 29.125 82.386719 26.761719 84.75 23.859375 84.75 Z M 23.859375 84.75 " fill-opacity="1" fill-rule="nonzero"/><g clip-path="url(#26f2db3f50)"><path fill="#7b61ff" d="M 27.636719 91.21875 C 18.675781 91.21875 11.382812 83.925781 11.382812 74.960938 C 11.382812 65.996094 18.675781 58.703125 27.636719 58.703125 C 36.601562 58.703125 43.894531 65.996094 43.894531 74.960938 C 43.894531 79.09375 42.34375 83.035156 39.519531 86.054688 C 39.183594 86.417969 38.621094 86.433594 38.261719 86.097656 C 37.902344 85.761719 37.882812 85.199219 38.21875 84.839844 C 40.730469 82.148438 42.113281 78.640625 42.113281 74.960938 C 42.113281 66.980469 35.621094 60.488281 27.636719 60.488281 C 19.65625 60.488281 13.164062 66.980469 13.164062 74.960938 C 13.164062 82.941406 19.65625 89.433594 27.636719 89.433594 C 30.109375 89.433594 32.542969 88.804688 34.6875 87.609375 C 35.117188 87.367188 35.660156 87.523438 35.898438 87.953125 C 36.140625 88.382812 35.984375 88.925781 35.554688 89.164062 C 33.148438 90.507812 30.410156 91.21875 27.636719 91.21875 Z M 27.636719 91.21875 " fill-opacity="1" fill-rule="nonzero"/></g><path fill="#7b61ff" d="M 23.859375 84.75 C 20.953125 84.75 18.589844 82.386719 18.589844 79.484375 C 18.589844 76.578125 20.953125 74.21875 23.859375 74.21875 L 31.886719 74.152344 C 33.8125 74.152344 35.375 72.589844 35.375 70.667969 C 35.375 68.746094 33.8125 67.183594 31.894531 67.183594 C 29.972656 67.183594 28.40625 68.746094 28.40625 70.667969 L 28.40625 71.925781 C 28.40625 72.417969 28.007812 72.816406 27.515625 72.816406 C 27.023438 72.816406 26.625 72.417969 26.625 71.925781 L 26.625 70.667969 C 26.625 67.761719 28.988281 65.398438 31.894531 65.398438 C 34.796875 65.398438 37.160156 67.761719 37.160156 70.667969 C 37.160156 73.570312 34.796875 75.933594 31.894531 75.933594 L 23.867188 76 C 21.9375 76 20.375 77.5625 20.375 79.484375 C 20.375 81.40625 21.9375 82.96875 23.859375 82.96875 C 25.777344 82.96875 27.339844 81.40625 27.339844 79.484375 L 27.339844 78.113281 C 27.339844 77.621094 27.742188 77.222656 28.230469 77.222656 C 28.722656 77.222656 29.125 77.621094 29.125 78.113281 L 29.125 79.484375 C 29.125 82.386719 26.761719 84.75 23.859375 84.75 Z M 23.859375 84.75 " fill-opacity="1" fill-rule="nonzero"/></svg>